<svg xmlns="http://www.w3.org/2000/svg">
  <symbol id="sun" viewBox="0 0 24 24">
    <path d="M12,17c2.8,0,5-2.2,5-5s-2.2-5-5-5-5,2.2-5,5,2.2,5,5,5ZM12,.9c.6,0,1,.4,1,1v1c0,.6-.4,1-1,1s-1-.4-1-1v-1c0-.6.4-1,1-1ZM12,20c.6,0,1,.4,1,1v1c0,.6-.4,1-1,1s-1-.4-1-1v-1c0-.6.4-1,1-1ZM4.2,4.2c.4-.4,1-.4,1.4,0l.7.7c.4.4.3,1.1-.1,1.4-.4.3-.9.3-1.3,0l-.7-.7c-.4-.4-.4-1,0-1.4ZM17.7,17.7c.4-.4,1-.4,1.4,0l.7.7c.4.4.3,1.1-.1,1.4-.4.3-.9.3-1.3,0l-.7-.7c-.4-.4-.4-1,0-1.4ZM1,12c0-.6.4-1,1-1h1c.6,0,1,.4,1,1s-.4,1-1,1h-1c-.6,0-1-.4-1-1ZM20,12c0-.6.4-1,1-1h1c.6,0,1,.4,1,1s-.4,1-1,1h-1c-.6,0-1-.4-1-1ZM4.2,19.8c-.4-.4-.4-1,0-1.4l.7-.7c.4-.4,1-.5,1.4-.1.4.4.5,1,.1,1.4,0,0,0,0-.1.1l-.7.7c-.4.4-1,.4-1.4,0ZM17.7,6.3c-.4-.4-.4-1,0-1.4l.7-.7c.4-.4,1-.5,1.4-.1.4.4.5,1,.1,1.4,0,0,0,0-.1.1l-.7.7c-.4.4-1,.4-1.4,0Z"/>
  </symbol>

  <symbol id="moon" viewBox="0 0 24 24">
    <path fill="white" d="M21 12.79A9 9 0 1111.21 3a7 7 0 109.79 9.79z"/>
  </symbol>

  <symbol id="right-arrow" viewBox="0 0 24 24" fill="none" stroke="currentColor" stroke-width="2" stroke-linecap="round" stroke-linejoin="round">
    <line x1="5" y1="12" x2="19" y2="12"/>
    <polyline points="12 5 19 12 12 19"/>
  </symbol>

  <symbol id="github" viewBox="0 0 24 24">
    <path fill="currentColor" d="M12 0C5.37 0 0 5.37 0 12c0 5.31 3.435 9.795 8.205 11.385.6.105.825-.255.825-.57 0-.285-.015-1.23-.015-2.235-3.015.555-3.795-.735-4.035-1.41-.135-.345-.72-1.41-1.23-1.695-.42-.225-1.02-.78-.015-.795.945-.015 1.62.87 1.845 1.23 1.08 1.815 2.805 1.305 3.495.99.105-.78.42-1.305.765-1.605-2.67-.3-5.46-1.335-5.46-5.925 0-1.305.465-2.385 1.23-3.225-.12-.3-.54-1.53.12-3.18 0 0 1.005-.315 3.3 1.23.96-.27 1.98-.405 3-.405s2.04.135 3 .405c2.295-1.56 3.3-1.23 3.3-1.23.66 1.65.24 2.88.12 3.18.765.84 1.23 1.905 1.23 3.225 0 4.605-2.805 5.625-5.475 5.925.435.375.81 1.095.81 2.22 0 1.605-.015 2.895-.015 3.3 0 .315.225.69.825.57A12.02 12.02 0 0024 12c0-6.63-5.37-12-12-12z"/>
  </symbol>

  <symbol id="twitter" viewBox="0 0 24 24">
    <path fill="currentColor" d="M18.244 2.25h3.308l-7.227 8.26 8.502 11.24H16.17l-4.714-6.231-5.401 6.231H2.74l7.73-8.835L1.254 2.25H8.08l4.713 6.231zm-1.161 17.52h1.833L7.084 4.126H5.117z"/>
  </symbol>

  <symbol id="linkedin" viewBox="0 0 24 24">
    <path fill="currentColor" d="M20.447 20.452h-3.554v-5.569c0-1.328-.027-3.037-1.852-3.037-1.853 0-2.136 1.445-2.136 2.939v5.667H9.351V9h3.414v1.561h.046c.477-.9 1.637-1.85 3.37-1.85 3.601 0 4.267 2.37 4.267 5.455v6.286zM5.337 7.433a2.062 2.062 0 01-2.063-2.065 2.064 2.064 0 112.063 2.065zm1.782 13.019H3.555V9h3.564v11.452zM22.225 0H1.771C.792 0 0 .774 0 1.729v20.542C0 23.227.792 24 1.771 24h20.451C23.2 24 24 23.227 24 22.271V1.729C24 .774 23.2 0 22.222 0h.003z"/>
  </symbol>

  <symbol id="dribbble" viewBox="0 0 24 24">
    <path fill="currentColor" d="M12 24C5.385 24 0 18.615 0 12S5.385 0 12 0s12 5.385 12 12-5.385 12-12 12zm10.12-10.358c-.35-.11-3.17-.953-6.384-.438 1.34 3.684 1.887 6.684 1.992 7.308 2.3-1.555 3.936-4.02 4.395-6.87zm-6.115 7.808c-.153-.9-.75-4.032-2.19-7.77l-.066.02c-5.79 2.015-7.86 6.025-8.04 6.4 1.73 1.358 3.92 2.166 6.29 2.166 1.42 0 2.77-.29 4-.816zm-11.62-2.073c.232-.4 3.045-5.055 8.332-6.765.135-.045.27-.084.405-.12-.26-.585-.54-1.167-.832-1.74C7.17 11.775 2.206 11.71 1.756 11.7l-.004.312c0 2.633.998 5.037 2.634 6.855zm-2.42-8.955c.46.008 4.683.026 9.477-1.248-1.698-3.018-3.53-5.558-3.8-5.928-2.868 1.35-5.01 3.99-5.676 7.176zM9.6 2.052c.282.38 2.145 2.914 3.822 6 3.645-1.365 5.19-3.44 5.373-3.702-1.81-1.61-4.19-2.586-6.795-2.586-.825 0-1.63.1-2.4.285zm10.335 3.483c-.218.29-1.935 2.493-5.724 4.04.24.49.47.985.68 1.486.08.18.15.36.224.54 3.397-.43 6.747.257 7.07.332-.03-2.54-1.065-4.84-2.25-6.398z"/>
  </symbol>
  <symbol id="external-link" viewBox="0 0 24 24" fill="none">
    <path stroke="currentColor" stroke-width="2" stroke-linecap="round" stroke-linejoin="round" d="M18 13v6a2 2 0 01-2 2H5a2 2 0 01-2-2V8a2 2 0 012-2h6"/>
    <polyline stroke="currentColor" stroke-width="2" stroke-linecap="round" stroke-linejoin="round" points="15 3 21 3 21 9"/>
    <line stroke="currentColor" stroke-width="2" stroke-linecap="round" stroke-linejoin="round" x1="10" y1="14" x2="21" y2="3"/>
  </symbol>

  <symbol id="download" viewBox="0 0 24 24" fill="none">
    <path stroke="currentColor" stroke-width="2" stroke-linecap="round" stroke-linejoin="round" d="M21 15v4a2 2 0 01-2 2H5a2 2 0 01-2-2v-4"/>
    <polyline stroke="currentColor" stroke-width="2" stroke-linecap="round" stroke-linejoin="round" points="7 10 12 15 17 10"/>
    <line stroke="currentColor" stroke-width="2" stroke-linecap="round" stroke-linejoin="round" x1="12" y1="15" x2="12" y2="3"/>
  </symbol>

  <symbol id="send" viewBox="0 0 24 24" fill="none">
    <line fill="none" stroke="currentColor" stroke-width="2" stroke-linecap="round" stroke-linejoin="round" x1="22" y1="2" x2="11" y2="13"/>
    <polygon fill="none" stroke="currentColor" stroke-width="2" stroke-linecap="round" stroke-linejoin="round" points="22 2 15 22 11 13 2 9 22 2"/>
  </symbol>

  <symbol id="chevron-up" viewBox="0 0 24 24" fill="none">
    <polyline stroke="currentColor" stroke-width="2" stroke-linecap="round" stroke-linejoin="round" points="18 15 12 9 6 15"/>
  </symbol>
</svg>
