<?xml version="1.0" encoding="UTF-8"?>
<svg id="_レイヤー_1" data-name="レイヤー_1" xmlns="http://www.w3.org/2000/svg" version="1.1" viewBox="0 0 24 24">
  <!-- Generator: Adobe Illustrator 29.1.0, SVG Export Plug-In . SVG Version: 2.1.0 Build 142)  -->
  <path d="M12,17c2.8,0,5-2.2,5-5s-2.2-5-5-5-5,2.2-5,5,2.2,5,5,5ZM12,.9c.6,0,1,.4,1,1v1c0,.6-.4,1-1,1s-1-.4-1-1v-1c0-.6.4-1,1-1ZM12,20c.6,0,1,.4,1,1v1c0,.6-.4,1-1,1s-1-.4-1-1v-1c0-.6.4-1,1-1ZM4.2,4.2c.4-.4,1-.4,1.4,0l.7.7c.4.4.3,1.1-.1,1.4-.4.3-.9.3-1.3,0l-.7-.7c-.4-.4-.4-1,0-1.4ZM17.7,17.7c.4-.4,1-.4,1.4,0l.7.7c.4.4.3,1.1-.1,1.4-.4.3-.9.3-1.3,0l-.7-.7c-.4-.4-.4-1,0-1.4ZM1,12c0-.6.4-1,1-1h1c.6,0,1,.4,1,1s-.4,1-1,1h-1c-.6,0-1-.4-1-1ZM20,12c0-.6.4-1,1-1h1c.6,0,1,.4,1,1s-.4,1-1,1h-1c-.6,0-1-.4-1-1ZM4.2,19.8c-.4-.4-.4-1,0-1.4l.7-.7c.4-.4,1-.5,1.4-.1.4.4.5,1,.1,1.4,0,0,0,0-.1.1l-.7.7c-.4.4-1,.4-1.4,0ZM17.7,6.3c-.4-.4-.4-1,0-1.4l.7-.7c.4-.4,1-.5,1.4-.1.4.4.5,1,.1,1.4,0,0,0,0-.1.1l-.7.7c-.4.4-1,.4-1.4,0Z"/>
</svg>